<svg width="190" height="168" viewBox="0 0 190 168" fill="none" xmlns="http://www.w3.org/2000/svg">
<path fill-rule="evenodd" clip-rule="evenodd" d="M106.5 167C152.616 167 190 129.616 190 83.5C190 37.3842 152.616 0 106.5 0C60.3842 0 23 37.3842 23 83.5L0 83.5C4 104 22.815 131.418 35.5 143C53.567 159.496 78.7301 167.97 104.203 166.969C104.966 166.99 105.732 167 106.5 167Z" fill="url(#paint0_linear_223_1934)"/>
<path d="M72.6199 109.081C68.4148 109.081 64.6602 108.06 61.3562 106.018C58.0522 103.975 55.4391 101.182 53.5167 97.6375C51.5944 94.0932 50.6332 90.0683 50.6332 85.5628C50.6332 81.0574 51.5944 77.0625 53.5167 73.5783C55.4391 70.034 58.0522 67.2707 61.3562 65.2883C64.6602 63.2458 68.4148 62.2246 72.6199 62.2246C75.9839 62.2246 78.9275 62.8553 81.4506 64.1169C83.9736 65.3784 86.0161 67.1505 87.578 69.4333V43.1215H99.1119V108H88.8395L87.578 101.602C86.1362 103.585 84.2139 105.327 81.811 106.829C79.4682 108.33 76.4044 109.081 72.6199 109.081ZM75.0528 98.9891C78.7773 98.9891 81.811 97.7576 84.1538 95.2946C86.5567 92.7716 87.7582 89.5577 87.7582 85.6529C87.7582 81.7482 86.5567 78.5644 84.1538 76.1014C81.811 73.5783 78.7773 72.3168 75.0528 72.3168C71.3884 72.3168 68.3547 73.5483 65.9518 76.0113C63.5489 78.4743 62.3474 81.6581 62.3474 85.5628C62.3474 89.4676 63.5489 92.6815 65.9518 95.2045C68.3547 97.7276 71.3884 98.9891 75.0528 98.9891ZM110.857 127.824V63.3059H121.13L122.391 69.7036C123.833 67.7212 125.725 65.9791 128.068 64.4773C130.471 62.9755 133.565 62.2246 137.349 62.2246C141.554 62.2246 145.309 63.2458 148.613 65.2883C151.917 67.3308 154.53 70.1241 156.452 73.6684C158.375 77.2127 159.336 81.2376 159.336 85.7431C159.336 90.2485 158.375 94.2734 156.452 97.8177C154.53 101.302 151.917 104.065 148.613 106.108C145.309 108.09 141.554 109.081 137.349 109.081C133.985 109.081 131.042 108.451 128.518 107.189C125.995 105.927 123.953 104.155 122.391 101.873V127.824H110.857ZM134.916 98.9891C138.581 98.9891 141.614 97.7576 144.017 95.2946C146.42 92.8316 147.622 89.6478 147.622 85.7431C147.622 81.8383 146.42 78.6244 144.017 76.1014C141.614 73.5783 138.581 72.3168 134.916 72.3168C131.192 72.3168 128.128 73.5783 125.725 76.1014C123.382 78.5644 122.211 81.7482 122.211 85.6529C122.211 89.5577 123.382 92.7716 125.725 95.2946C128.128 97.7576 131.192 98.9891 134.916 98.9891Z" fill="white"/>
<defs>
<linearGradient id="paint0_linear_223_1934" x1="151.5" y1="-24" x2="93.253" y2="182.712" gradientUnits="userSpaceOnUse">
<stop stop-color="#A103D3"/>
<stop offset="1" stop-color="#5E0E6F"/>
</linearGradient>
</defs>
</svg>
