<svg width="215" height="45" viewBox="0 0 215 45" fill="none" xmlns="http://www.w3.org/2000/svg">
<path fill-rule="evenodd" clip-rule="evenodd" d="M21.1858 39.1674C30.3595 39.1674 37.7963 31.7306 37.7963 22.5569C37.7963 13.3831 30.3595 5.94637 21.1858 5.94637C12.0121 5.94637 4.57544 13.3829 4.57524 22.5565L0 22.5565C0.795713 26.6345 4.53855 32.0888 7.06195 34.3927C10.6546 37.673 15.6578 39.3588 20.7232 39.1611C20.8769 39.1653 21.0311 39.1674 21.1858 39.1674Z" fill="white"/>
<path d="M55.6681 36.0106C53.9215 36.0106 52.3621 35.5865 50.9898 34.7381C49.6175 33.8898 48.5321 32.7296 47.7337 31.2575C46.9353 29.7854 46.5361 28.1137 46.5361 26.2424C46.5361 24.371 46.9353 22.7118 47.7337 21.2647C48.5321 19.7926 49.6175 18.6448 50.9898 17.8214C52.3621 16.9731 53.9215 16.5489 55.6681 16.5489C57.0653 16.5489 58.2879 16.8109 59.3359 17.3349C60.3838 17.8589 61.2321 18.5949 61.8809 19.543V8.61456H66.6714V35.5615H62.4048L61.8809 32.9043C61.282 33.7276 60.4836 34.4512 59.4856 35.075C58.5125 35.6988 57.24 36.0106 55.6681 36.0106ZM56.6786 31.8189C58.2256 31.8189 59.4856 31.3074 60.4587 30.2844C61.4567 29.2365 61.9557 27.9016 61.9557 26.2798C61.9557 24.658 61.4567 23.3356 60.4587 22.3126C59.4856 21.2647 58.2256 20.7407 56.6786 20.7407C55.1566 20.7407 53.8966 21.2522 52.8985 22.2752C51.9005 23.2982 51.4015 24.6206 51.4015 26.2424C51.4015 27.8642 51.9005 29.199 52.8985 30.247C53.8966 31.2949 55.1566 31.8189 56.6786 31.8189ZM80.5695 36.0106C78.6982 36.0106 77.0389 35.6114 75.5918 34.813C74.1446 34.0146 73.0094 32.8918 72.186 31.4446C71.3626 29.9975 70.9509 28.3258 70.9509 26.4295C70.9509 24.5083 71.3501 22.7991 72.1485 21.3021C72.9719 19.805 74.0947 18.6448 75.5169 17.8214C76.9641 16.9731 78.6607 16.5489 80.6069 16.5489C82.4283 16.5489 84.0376 16.9482 85.4349 17.7466C86.8321 18.545 87.9175 19.6429 88.691 21.0401C89.4894 22.4124 89.8886 23.9469 89.8886 25.6435C89.8886 25.918 89.8762 26.2049 89.8512 26.5043C89.8512 26.8038 89.8387 27.1156 89.8138 27.44H75.704C75.8039 28.8872 76.3029 30.0224 77.2011 30.8458C78.1243 31.6692 79.2346 32.0809 80.532 32.0809C81.5051 32.0809 82.316 31.8688 82.9648 31.4446C83.6384 30.9955 84.1375 30.4216 84.4618 29.723H89.3272C88.9779 30.8957 88.3916 31.9686 87.5682 32.9417C86.7698 33.8898 85.7717 34.6383 84.5741 35.1873C83.4014 35.7362 82.0665 36.0106 80.5695 36.0106ZM80.6069 20.4413C79.4342 20.4413 78.3987 20.7781 77.5005 21.4518C76.6023 22.1005 76.0284 23.0986 75.7789 24.4459H85.0232C84.9484 23.2233 84.4992 22.2502 83.6759 21.5266C82.8525 20.8031 81.8295 20.4413 80.6069 20.4413ZM93.9178 43.7953V16.9981H98.1844L98.7084 19.6553C99.3072 18.8319 100.093 18.1084 101.066 17.4846C102.064 16.8608 103.349 16.5489 104.921 16.5489C106.668 16.5489 108.227 16.9731 109.599 17.8214C110.972 18.6698 112.057 19.83 112.856 21.3021C113.654 22.7742 114.053 24.4459 114.053 26.3172C114.053 28.1885 113.654 29.8602 112.856 31.3323C112.057 32.7795 110.972 33.9272 109.599 34.7756C108.227 35.5989 106.668 36.0106 104.921 36.0106C103.524 36.0106 102.301 35.7487 101.253 35.2247C100.205 34.7007 99.3571 33.9647 98.7084 33.0165V43.7953H93.9178ZM103.911 31.8189C105.433 31.8189 106.693 31.3074 107.691 30.2844C108.689 29.2614 109.188 27.939 109.188 26.3172C109.188 24.6954 108.689 23.3605 107.691 22.3126C106.693 21.2647 105.433 20.7407 103.911 20.7407C102.364 20.7407 101.091 21.2647 100.093 22.3126C99.1201 23.3356 98.6335 24.658 98.6335 26.2798C98.6335 27.9016 99.1201 29.2365 100.093 30.2844C101.091 31.3074 102.364 31.8189 103.911 31.8189ZM125.294 36.0106C122.974 36.0106 121.177 35.2871 119.905 33.8399C118.657 32.3928 118.033 30.2719 118.033 27.4774V16.9981H122.786V27.0283C122.786 28.6252 123.111 29.8478 123.759 30.6961C124.408 31.5444 125.431 31.9686 126.828 31.9686C128.151 31.9686 129.236 31.4945 130.085 30.5464C130.958 29.5983 131.394 28.2759 131.394 26.5792V16.9981H136.185V35.5615H131.956L131.582 32.4177C131.008 33.5155 130.172 34.3888 129.074 35.0376C128.001 35.6863 126.741 36.0106 125.294 36.0106ZM152.106 36.0106C150.709 36.0106 149.486 35.7487 148.438 35.2247C147.39 34.7007 146.542 33.9647 145.893 33.0165L145.369 35.5615H141.103V8.61456H145.893V19.6553C146.492 18.8319 147.278 18.1084 148.251 17.4846C149.249 16.8608 150.534 16.5489 152.106 16.5489C153.853 16.5489 155.412 16.9731 156.784 17.8214C158.157 18.6698 159.242 19.83 160.041 21.3021C160.839 22.7742 161.238 24.4459 161.238 26.3172C161.238 28.1885 160.839 29.8602 160.041 31.3323C159.242 32.7795 158.157 33.9272 156.784 34.7756C155.412 35.5989 153.853 36.0106 152.106 36.0106ZM151.096 31.8189C152.618 31.8189 153.878 31.3074 154.876 30.2844C155.874 29.2614 156.373 27.939 156.373 26.3172C156.373 24.6954 155.874 23.3605 154.876 22.3126C153.878 21.2647 152.618 20.7407 151.096 20.7407C149.549 20.7407 148.276 21.2647 147.278 22.3126C146.305 23.3356 145.818 24.658 145.818 26.2798C145.818 27.9016 146.305 29.2365 147.278 30.2844C148.276 31.3074 149.549 31.8189 151.096 31.8189ZM165.518 35.5615V8.61456H170.308V35.5615H165.518ZM177.786 14.1162C176.912 14.1162 176.189 13.8542 175.615 13.3303C175.066 12.8063 174.791 12.1451 174.791 11.3467C174.791 10.5483 175.066 9.89953 175.615 9.40051C176.189 8.87654 176.912 8.61456 177.786 8.61456C178.659 8.61456 179.37 8.87654 179.919 9.40051C180.493 9.89953 180.78 10.5483 180.78 11.3467C180.78 12.1451 180.493 12.8063 179.919 13.3303C179.37 13.8542 178.659 14.1162 177.786 14.1162ZM175.39 35.5615V16.9981H180.181V35.5615H175.39ZM194.276 36.0106C192.379 36.0106 190.708 35.5989 189.261 34.7756C187.813 33.9522 186.666 32.8044 185.817 31.3323C184.994 29.8602 184.582 28.1761 184.582 26.2798C184.582 24.3835 184.994 22.6993 185.817 21.2272C186.666 19.7551 187.813 18.6074 189.261 17.784C190.708 16.9606 192.379 16.5489 194.276 16.5489C196.646 16.5489 198.642 17.1727 200.264 18.4203C201.886 19.6429 202.921 21.3395 203.37 23.5102H198.318C198.068 22.612 197.569 21.9134 196.821 21.4144C196.097 20.8904 195.236 20.6284 194.238 20.6284C192.916 20.6284 191.793 21.1274 190.87 22.1255C189.947 23.1235 189.485 24.5083 189.485 26.2798C189.485 28.0513 189.947 29.4361 190.87 30.4341C191.793 31.4322 192.916 31.9312 194.238 31.9312C195.236 31.9312 196.097 31.6817 196.821 31.1826C197.569 30.6836 198.068 29.9725 198.318 29.0493H203.37C202.921 31.1452 201.886 32.8294 200.264 34.1019C198.642 35.3744 196.646 36.0106 194.276 36.0106ZM209.681 35.8235C208.807 35.8235 208.084 35.549 207.51 35.0001C206.961 34.4512 206.687 33.79 206.687 33.0165C206.687 32.2181 206.961 31.5444 207.51 30.9955C208.084 30.4466 208.807 30.1721 209.681 30.1721C210.554 30.1721 211.265 30.4466 211.814 30.9955C212.388 31.5444 212.675 32.2181 212.675 33.0165C212.675 33.79 212.388 34.4512 211.814 35.0001C211.265 35.549 210.554 35.8235 209.681 35.8235Z" fill="white"/>
</svg>
