<svg xmlns="http://www.w3.org/2000/svg" width="130" height="205" viewBox="0 0 130 205" fill="none">
  <path fill-rule="evenodd" clip-rule="evenodd" d="M66.6629 100.944C94.0738 100.016 115.542 77.0426 114.615 49.6318C113.687 22.221 90.7137 0.752306 63.3028 1.68017C35.892 2.60804 14.4233 25.5811 15.3512 52.9919C15.3512 52.9921 15.3512 52.9923 15.3512 52.9925L1.68007 53.4553C4.4701 65.5598 16.2052 81.4783 23.9781 88.1073C35.051 97.5506 50.1819 102.081 65.3057 100.971C65.7568 100.968 66.2093 100.959 66.6629 100.944Z" fill="#FFD980"/>
  <path fill-rule="evenodd" clip-rule="evenodd" d="M98.7526 202.008C68.6343 200.989 45.0451 175.746 46.0646 145.628C47.0841 115.51 72.3263 91.9204 102.445 92.94C132.563 93.9595 156.152 119.202 155.133 149.32C155.133 149.32 155.133 149.32 155.133 149.32L170.154 149.829C167.088 163.129 154.194 180.62 145.653 187.904C133.488 198.278 116.865 203.257 100.25 202.039C99.7522 202.035 99.2531 202.025 98.7526 202.008Z" fill="#ECCDF6"/>
</svg>